<svg height="480pt" viewBox="0 0 480 480" width="480pt" xmlns="http://www.w3.org/2000/svg"><path d="m8 360h464v-352h-464zm232-272c53.019531 0 96 42.980469 96 96s-42.980469 96-96 96-96-42.980469-96-96 42.980469-96 96-96zm0 0" fill="#ab2300"/><path d="m8 472h464v-80h-464zm64-40c0-8.835938 7.164062-16 16-16s16 7.164062 16 16-7.164062 16-16 16-16-7.164062-16-16zm0 0" fill="#57565c"/><path d="m88 448c8.835938 0 16-7.164062 16-16h-32c0 8.835938 7.164062 16 16 16zm0 0" fill="#ffcd00"/><path d="m88 416c-8.835938 0-16 7.164062-16 16h32c0-8.835938-7.164062-16-16-16zm0 0" fill="#ffcd00"/><path d="m240 280c53.019531 0 96-42.980469 96-96s-42.980469-96-96-96-96 42.980469-96 96 42.980469 96 96 96zm-32-144 88 48-88 48zm0 0" fill="#ed1c24"/><path d="m208 136v96l88-48zm0 0" fill="#f1f2f2"/><g fill="#231f20"><path d="m472 0h-464c-4.417969 0-8 3.582031-8 8v352c0 4.417969 3.582031 8 8 8h464c4.417969 0 8-3.582031 8-8v-352c0-4.417969-3.582031-8-8-8zm-8 352h-448v-336h448zm0 0"/><path d="m472 384h-464c-4.417969 0-8 3.582031-8 8v80c0 4.417969 3.582031 8 8 8h464c4.417969 0 8-3.582031 8-8v-80c0-4.417969-3.582031-8-8-8zm-8 80h-448v-64h448zm0 0"/><path d="m40 440h25.472656c3.339844 9.585938 12.378906 16.007812 22.527344 16.007812s19.1875-6.421874 22.527344-16.007812h329.472656c4.417969 0 8-3.582031 8-8s-3.582031-8-8-8h-329.472656c-3.339844-9.585938-12.378906-16.007812-22.527344-16.007812s-19.1875 6.421874-22.527344 16.007812h-25.472656c-4.417969 0-8 3.582031-8 8s3.582031 8 8 8zm0 0"/><path d="m240 288c57.4375 0 104-46.5625 104-104s-46.5625-104-104-104-104 46.5625-104 104c.066406 57.410156 46.589844 103.933594 104 104zm0-192c48.601562 0 88 39.398438 88 88s-39.398438 88-88 88-88-39.398438-88-88c.058594-48.578125 39.421875-87.941406 88-88zm0 0"/><path d="m203.921875 238.878906c2.425781 1.441406 5.433594 1.496094 7.910156.144532l88-48c2.570313-1.402344 4.171875-4.09375 4.171875-7.023438s-1.601562-5.621094-4.171875-7.023438l-88-48c-2.480469-1.351562-5.488281-1.296874-7.914062.144532-2.429688 1.441406-3.917969 4.054687-3.917969 6.878906v96c0 2.824219 1.492188 5.441406 3.921875 6.878906zm12.078125-89.398437 63.296875 34.519531-63.296875 34.519531zm0 0"/></g></svg>